<svg xmlns="http://www.w3.org/2000/svg" width="10.978" height="10.011" viewBox="0 0 10.978 10.011">
  <g id="Vector_Smart_Object" data-name="Vector Smart Object" transform="translate(-640.011 -3358.989)">
    <g id="Vector_Smart_Object-2" data-name="Vector Smart Object" transform="translate(639.759 3358.287)">
      <path id="Контур_3" data-name="Контур 3" d="M7.853,1.409a2.694,2.694,0,0,0-2.112,1,2.693,2.693,0,0,0-2.112-1A2.634,2.634,0,0,0,.959,4,2.537,2.537,0,0,0,1.7,5.791L5.741,9.726,9.707,5.861A2.525,2.525,0,0,0,10.523,4a2.634,2.634,0,0,0-2.67-2.59h0Z" fill="none" stroke="#000" stroke-miterlimit="10" stroke-width="1.413"/>
    </g>
    <path id="Color_Overlay" data-name="Color Overlay" d="M641.462,3364.078a2.533,2.533,0,0,1-.745-1.792,2.634,2.634,0,0,1,2.671-2.589,2.726,2.726,0,0,0,4.224,0,2.634,2.634,0,0,1,2.67,2.589,2.527,2.527,0,0,1-.816,1.862l-3.966,3.865Z" fill="#e84c3d"/>
  </g>
</svg>
